PathFileType	4	(X/Y/Z)	C:/Users/beibeiliu/ov580/test_trc/User1\sequence.33_training_dense_right.trc
DataRate	CameraRate	NumFrames	NumMarkers	Units	OrigDataRate	OrigDataStartFrame	OrigNumFrames
120	120	16	19	mm	120	228	260
Frame#	Time	ThumbCMC			ThumbMCP			ThumbIP			ThumbTip			IndexMCP			IndexPIP			IndexTip			MiddleMCP			MiddlePIP			MiddleTip			RingMCP			RingPIP			RingTip			PinkyMCP			PinkyPIP			PinkyTip			BackHand1			BackHand2			BackHand3	
		X0	Y0	Z0	X1	Y1	Z1	X2	Y2	Z2	X3	Y3	Z3	X4	Y4	Z4	X5	Y5	Z5	X6	Y6	Z6	X7	Y7	Z7	X8	Y8	Z8	X9	Y9	Z9	X10	Y10	Z10	X11	Y11	Z11	X12	Y12	Z12	X13	Y13	Z13	X14	Y14	Z14	X15	Y15	Z15	X16	Y16	Z16	X17	Y17	Z17	X18	Y18	Z18	
227	1.89167	164.271	-6.69106	41.0732	143.055	-31.1403	27.2961	130.684	-45.554	9.14222	115.101	-55.5534	2.97141	199.481	-3.20698	-38.6625	203.596	-2.08637	-64.9929	212.567	-0.896308	-84.9337	232.63	-0.805295	-36.7569	238.601	1.62643	-61.9915	252.798	4.65001	-83.7635	249.514	-7.06014	-23.7117	258.758	-2.85849	-45.7121	273.785	-0.113433	-67.6445	263.442	-21.6935	3.20831	279.721	-19.7812	-10.0506	295.042	-10.3573	-20.2205	235.026	0.448973	24.2656	227.964	11.7198	57.8602	201.306	13.196	33.5473	
228	1.9	161.128	-10.3086	36.8214	144.595	-32.6769	28.2795	133.364	-48.3256	8.81312	114.858	-59.6793	1.20556	201.477	-7.05512	-35.456	205.652	-5.2461	-59.3175	212.823	-1.8778	-86.5729	233.941	-4.78868	-32.3575	241.644	-2.31595	-59.275	252.6	2.69711	-84.8274	248.791	-10.7287	-19.2463	264.845	-6.23837	-45.0812	274.794	-2.74785	-67.7458	266.938	-25.8997	8.33859	278.744	-23.6773	-4.67698	293.927	-11.3683	-21.1769	235.08	-1.12963	27.4861	229.06	9.08156	57.2591	199.354	10.9213	28.9171	
229	1.90833	163.64	-12.2297	40.0405	148.841	-35.796	30.1141	133.617	-50.6119	11.5223	118.498	-62.5284	5.17355	202.754	-8.43151	-35.3815	207.999	-7.83215	-58.9814	219.339	-4.88031	-85.6934	231.035	-6.76629	-33.1939	245.517	-4.20587	-61.5098	256.029	-1.55507	-85.8551	251.999	-11.4617	-22.1782	265.43	-8.33697	-45	276.216	-7.73335	-62.6335	270.575	-27.4232	5.53902	281.831	-25.6608	-9.8033	298.075	-15.1963	-21.2602	239.94	-5.65734	25.102	230.562	7.00269	59.9353	201.349	9.00362	31.1352	
230	1.91667	170.342	-15.7981	38.3384	151.924	-40.8603	26.7027	137.04	-54.9558	12.5806	121.085	-68.0994	0.285002	203.482	-11.1613	-34.6545	210.865	-12.3764	-57.1601	217.326	-9.87045	-81.5911	237.142	-10.0029	-30.9667	245.64	-7.36674	-60.5099	256.123	-6.55406	-81.9797	252.249	-15.5243	-18.5367	268.621	-12.0285	-44.0649	278.549	-10.4794	-66.7287	270.927	-30.3406	5.46305	286.046	-28.8835	-6.22898	297.493	-20.7596	-17.8745	241.992	-7.99972	30.6228	236.271	3.74191	61.9215	203.096	4.4853	33.4605	
231	1.925	167.86	-17.3105	40.1023	150.26	-42.044	27.0642	135.37	-55.5586	13.5938	123.231	-70.1034	0.99877	204.242	-13.53	-34.4791	211.079	-13.2406	-62.1922	223.06	-11.9661	-83.0454	240.945	-13.8797	-30.9427	249.937	-11.2714	-59.8098	262.58	-10.3115	-79.9587	255.392	-18.9908	-17.5381	268.863	-15.5385	-40.0761	283.365	-16.2494	-60.812	273.51	-33.2286	11.6416	289.263	-32.1126	-3.87981	299.354	-21.1621	-18.2001	242.36	-10.45	30.0548	238.246	1.23907	59.0016	209.266	1.90349	32.5314	
232	1.93333	172.813	-18.8874	42.4835	155.248	-44.4135	29.3644	137.989	-59.4078	10.1411	121.714	-72.8377	1.8532	209.541	-16.1489	-36.0627	215.585	-17.1798	-60.5298	224.772	-15.8596	-81.3131	243.519	-15.7128	-33.2251	251.318	-14.0575	-56.204	267.353	-11.6265	-84.1616	262.166	-21.5794	-16.8989	272.393	-18.4976	-43.4855	283.881	-18.2042	-63.6427	273.676	-35.1896	9.21136	289.299	-33.7179	-4.61907	299.908	-26.2527	-16.1617	246.662	-14.1975	28.3458	240.024	-1.79413	64.1505	206.054	0.47954	34.2269	
233	1.94167	173.733	-21.3645	42.2572	154.181	-45.7772	29.1681	139.082	-61.3336	10.2077	122.204	-72.8067	5.55192	209.388	-19.7263	-32.2686	217.215	-18.786	-61.0029	226.01	-20.4656	-79.5021	239.721	-16.3661	-31.545	250.463	-16.2708	-57.0818	264.611	-14.1647	-84.6025	261.304	-24.3525	-15.8086	275.169	-22.1067	-38.2831	287.844	-21.0789	-62.1844	274.227	-39.7598	12.3973	292.827	-37.2571	-3.06427	304.869	-28.7683	-12.8918	246.664	-15.0836	33.0799	240.248	-3.3634	59.5339	212.021	-2.64868	35.1921	
234	1.95	174.935	-25.1749	44.0069	157.785	-50.2885	27.9093	140.051	-64.5839	11.6066	125.974	-76.2383	2.96638	214.903	-22.4703	-34.4948	220.774	-22.9832	-58.435	225.753	-22.5744	-82.3303	243.45	-20.7656	-28.2449	251.496	-19.5805	-54.3956	266.433	-18.7612	-83.0479	261.43	-26.8681	-14.6389	275.566	-24.3236	-36.7716	286.751	-23.1775	-63.6293	278.678	-42.7915	13.3067	289.143	-41.0807	-1.55103	303.709	-31.9568	-14.3837	247.828	-17.47	31.3558	241.147	-6.5756	60.9615	213.241	-6.68926	34.8128	
235	1.95833	175.424	-28.6462	41.1674	157.578	-52.0125	31.5608	139.702	-66.6973	13.0948	123.557	-77.6361	7.08011	211.113	-26.3929	-32.4317	217.534	-25.6713	-58.8882	230.418	-28.0981	-77.1453	243.371	-23.2323	-28.7629	254.571	-22.5941	-56.6838	266.521	-23.2404	-78.9836	262.568	-31.027	-11.3098	277.108	-28.0297	-34.7732	287.762	-28.3744	-58.3656	275.022	-44.2362	12.5448	295.744	-43.6552	0.0909323	306.895	-36.1308	-11.6062	244.675	-19.1938	32.4152	241.072	-8.7295	61.8067	213.02	-7.76155	34.2778	
236	1.96667	175.172	-29.9286	43.1539	157.804	-52.9911	34.6336	143.326	-68.9226	13.8554	126.467	-81.3714	3.91658	214.153	-29.3394	-30.0215	216.764	-29.8272	-56.4322	226.387	-29.6643	-81.1367	244.226	-26.8514	-27.4079	252.546	-26.4191	-53.3415	270.368	-26.602	-81.1761	265.109	-33.3634	-13.1417	277.63	-30.7009	-34.2519	286.221	-32.0512	-57.221	278.024	-46.1738	10.4079	291.845	-47.0316	-1.07879	308.729	-37.0096	-15.7085	250.393	-24.5847	33.8673	240.881	-12.0153	66.0059	214.118	-11.8138	35.0704	
237	1.975	174.48	-32.0916	43.69	155.099	-55.3066	33.6783	142.554	-70.0337	15.6812	127.75	-83.4478	6.32887	214.07	-31.6662	-27.9043	220.98	-33.603	-52.5302	231.304	-32.1813	-80.1345	245.757	-28.8231	-28.9879	255.762	-29.4448	-54.8117	269.254	-29.132	-80.8756	264.952	-34.9625	-14.1905	274.742	-33.6752	-35.3353	288.181	-35.1024	-56.4977	278.214	-49.4872	13.0406	295.676	-49.0766	2.08784	308.407	-41.8363	-13.9941	246.992	-24.2369	32.2976	240.465	-12.8213	63.4707	213.31	-11.7244	37.6196	
238	1.98333	176.05	-33.0785	48.3568	158.735	-57.5559	34.3045	139.764	-70.8963	18.3614	125.87	-83.7095	10.0094	215.504	-34.6266	-27.9984	216.461	-35.2689	-52.5051	228.235	-36.2951	-76.869	245.301	-31.7046	-26.51	258.417	-32.805	-55.1443	267.83	-32.6181	-77.4509	263.674	-37.6351	-11.8112	277.08	-36.5354	-33.8645	290.295	-37.726	-60.58	280.216	-52.4974	15.4174	291.256	-51.726	2.36665	306.945	-41.4106	-12.5523	246.688	-26.2314	35.3595	243.722	-17.3408	67.501	213.265	-14.3848	36.8624	
239	1.99167	174.08	-36.5404	45.197	159.182	-58.2375	36.181	140.732	-72.4972	21.0628	124.127	-86.0862	7.90682	210.485	-36.2073	-27.1721	217.698	-38.1961	-51.4178	227.089	-38.716	-76.3301	245.054	-34.9797	-25.5877	256.86	-35.3688	-50.2733	265.356	-35.1139	-79.4926	265.955	-41.1944	-12.913	277.741	-40.3915	-36.4134	289.737	-41.3441	-59.8134	277.785	-55.9391	18.0705	289.891	-55.6987	2.59315	309.963	-45.6005	-10.642	246.768	-32.4256	32.7622	241.584	-19.7723	64.2004	214.014	-17.7476	40.5563	
240	2	178.386	-38.465	48.288	153.894	-59.959	36.8183	140.547	-73.567	22.7766	122.438	-85.3326	15.0602	213.736	-39.1338	-28.5987	219.348	-40.3892	-54.4087	224.439	-42.147	-74.7015	245.586	-38.5014	-26.7635	252.602	-38.9119	-51.0558	263.432	-37.6884	-81.612	262.555	-45.6274	-12.0552	273.875	-43.8601	-38.2287	282.107	-44.7165	-57.5351	280.338	-58.6697	14.5761	289.017	-58.6319	1.50782	305.153	-51.719	-12.503	249.456	-34.8041	37.4489	245.818	-21.4653	69.3839	215.607	-19.6491	39.0326	
241	2.00833	176.433	-39.7169	48.9915	152.537	-62.2682	37.8451	137.994	-74.7529	22.3384	120.709	-86.8456	12.5038	208.61	-41.2927	-26.2097	213.652	-41.6506	-50.0105	218.992	-42.6478	-74.4902	240.205	-41.0283	-26.7135	247.169	-40.659	-52.8166	262.084	-41.9667	-76.6524	259.389	-47.5277	-12.9776	271.043	-46.0419	-39.1921	281.585	-48.0051	-58.5492	274.845	-62.3269	14.1122	287.434	-62.7585	-0.224921	305.84	-53.8893	-15.8067	246.921	-35.9334	35.8364	242.373	-25.8043	66.8475	214.401	-22.8248	38.3783	
242	2.01667	174.499	-42.2792	50.5561	154.501	-63.8275	40.9546	132.846	-75.2723	28.0659	119.147	-85.6957	21.0311	201.108	-42.2723	-22.6364	207.486	-43.4627	-49.0275	216.631	-44.0155	-72.811	236.245	-44.1204	-25.5454	241.481	-42.8523	-55.8463	254.69	-43.957	-77.4736	255.255	-51.6828	-11.6528	264.556	-48.7774	-39.8943	277.805	-50.2284	-63.9402	271.191	-65.683	14.0103	286.641	-65.3357	-3.10318	300.342	-55.1458	-19.3481	242.867	-41.3829	32.6083	243.401	-28.4377	67.1466	211.024	-25.2698	43.7624	
